<?xml version="1.0" encoding="UTF-8"?>
<svg width="18px" height="14px" viewBox="0 0 18 14" version="1.1" xmlns="http://www.w3.org/2000/svg" xmlns:xlink="http://www.w3.org/1999/xlink">
    <!-- Generator: Sketch 47.1 (45422) - http://www.bohemiancoding.com/sketch -->
    <title>twitter_icon</title>
    <desc>Created with Sketch.</desc>
    <defs></defs>
    <g id="Symbols" stroke="none" stroke-width="1" fill="none" fill-rule="evenodd">
        <g id="topbar/tablet/dark" transform="translate(-700.000000, -43.000000)" fill="#231F20">
            <path d="M718,44.6578618 C717.5071,45.36742 716.880725,45.988492 716.158387,46.4876871 C716.166239,46.6387812 716.169728,46.7907102 716.169728,46.9451434 C716.169728,51.6148709 712.454224,57 705.660059,57 C703.57505,57 701.635729,56.4148232 700,55.4122593 C700.287888,55.4431459 700.584501,55.4615109 700.879368,55.4615109 C702.608443,55.4615109 704.204914,54.8963687 705.466389,53.9480651 C703.850725,53.9205176 702.489798,52.897919 702.017836,51.4938286 C702.243784,51.5338978 702.47584,51.5564367 702.713129,51.5564367 C703.048127,51.5564367 703.377017,51.5138632 703.685843,51.4312206 C701.996898,51.1081629 700.722338,49.6806988 700.722338,47.9694115 L700.722338,47.9234989 C701.220472,48.1881224 701.792759,48.3475642 702.397325,48.3650945 C701.405419,47.7315008 700.752872,46.6504681 700.752872,45.4241846 C700.752872,44.775565 700.933456,44.168684 701.25275,43.6469501 C703.076043,45.7848071 705.795279,47.1914018 708.866961,47.3399917 C708.800659,47.0812116 708.77187,46.8115795 708.77187,46.5327649 C708.77187,44.5810625 710.42243,43 712.462075,43 C713.525517,43 714.48689,43.4299088 715.157757,44.116928 C716.003102,43.9566514 716.791741,43.6653151 717.504483,43.2579453 C717.227936,44.0827023 716.643435,44.7780693 715.880095,45.2146563 C716.62686,45.1278397 717.340474,44.9391807 718,44.6578618 Z" id="twitter_icon"></path>
        </g>
    </g>
</svg>