<?xml version="1.0" encoding="UTF-8"?>
<svg width="512px" height="512px" viewBox="0 0 512 512" version="1.1" xmlns="http://www.w3.org/2000/svg" xmlns:xlink="http://www.w3.org/1999/xlink">
    <!-- Generator: Sketch 47.1 (45422) - http://www.bohemiancoding.com/sketch -->
    <title>twitter</title>
    <desc>Created with Sketch.</desc>
    <defs></defs>
    <g id="Symbols" stroke="none" stroke-width="1" fill="none" fill-rule="evenodd">
        <g id="twitter" fill="#FFFFFF">
            <path d="M512,104.156957 C497.979741,124.339945 480.162846,142.005996 459.616343,156.205321 C459.839674,160.503111 459.938933,164.824644 459.938933,169.217412 C459.938933,302.045217 354.253477,455.222222 160.997237,455.222222 C101.690302,455.222222 46.5274076,438.577193 0,410.059819 C8.18882373,410.938372 16.6257936,411.460756 25.0131343,411.460756 C74.1957059,411.460756 119.606456,395.385599 155.488392,368.41163 C109.531721,367.628055 70.8209179,338.540808 57.39621,298.602237 C63.8231959,299.741982 70.4238841,300.383089 77.17346,300.383089 C86.7022731,300.383089 96.0573838,299.172109 104.841758,296.821385 C56.8006591,287.632189 20.5465032,247.028767 20.5465032,198.352149 L20.5465032,197.046191 C34.7156497,204.573258 50.9940387,209.108494 68.1905685,209.607133 C39.9763486,191.584912 21.4150148,160.835536 21.4150148,125.954584 C21.4150148,107.504959 26.5516406,90.2425682 35.6337905,75.402136 C87.4963408,136.212291 164.843503,176.222096 252.215771,180.448651 C250.32986,173.087797 249.510978,165.418262 249.510978,157.487535 C249.510978,101.972446 296.460234,57 354.476809,57 C384.725828,57 412.071536,69.2285162 431.153977,88.7703973 C455.199341,84.2114165 477.631755,75.9245192 497.905297,64.3371097 C490.039064,87.796865 473.41327,107.576193 451.70048,119.994667 C472.941792,117.525219 493.240149,112.158919 512,104.156957 Z" id="Fill-243"></path>
        </g>
    </g>
</svg>