<svg xmlns="http://www.w3.org/2000/svg" viewBox="0 0 327.758 69.218"><defs><style>.cls-1{fill:#231f20;}</style></defs><title>full_shorter_black</title><g id="Layer_2" data-name="Layer 2"><g id="Layer_1-2" data-name="Layer 1"><path class="cls-1" d="M11.06,25.8H.03a3.194,3.194,0,0,0,.629-1.918V9.408A2.945,2.945,0,0,0,0,7.49H5.425a5.213,5.213,0,0,0-.569,1.948v12.8H9.582a4.45,4.45,0,0,0,2.167-.719Zm14.147,0a2.378,2.378,0,0,0,.3-1.227,2.1,2.1,0,0,0-.108-.658l-.419-1.982H21.548a19.924,19.924,0,0,0-.477,2.7,2.149,2.149,0,0,0,.27,1.169H15.825a3.97,3.97,0,0,0,.45-.54,3.849,3.849,0,0,0,.629-1.409L19.961,9.378a3.647,3.647,0,0,0,.06-.659,2.386,2.386,0,0,0-.3-1.228h7.1a2.386,2.386,0,0,0-.3,1.228,3.646,3.646,0,0,0,.059.659l3.057,14.476A4.037,4.037,0,0,0,30.721,25.8ZM23.258,11.776l-.929,6.594h1.888ZM255.927,60.349V62.5h4.134v2.45h-4.134v4.086h-2.544V57.9h6.757v2.448ZM267.064,57.9V69.031h-2.544V57.9Zm8.527,7.473h-1.208v3.658h-2.544V57.9h4.453a3.807,3.807,0,0,1,3.816,3.817,3.667,3.667,0,0,1-2.051,3.228l2.369,4.086H277.69Zm-1.208-2.226h1.908a1.441,1.441,0,0,0,0-2.863h-1.908Zm17.1,3.435v2.448h-7V57.9H291.4v2.448h-4.372v1.845h3.975v2.417h-3.975v1.972ZM304.529,57.9V69.031H302.62l-4.293-6.043v6.043h-2.544V57.9h1.908l4.293,6.043V57.9Zm12.013,8.683v2.448h-7.633V67.059l4.261-6.711h-4.182V57.9h7.473v1.972L312.2,66.583Zm11.216,0v2.448h-7V57.9h6.917v2.448h-4.372v1.845h3.975v2.417h-3.975v1.972ZM68.616,33.06q-3.539.174-5.423-4.5a29.7,29.7,0,0,0-3.451-6.693H57.828V29a5.06,5.06,0,0,0,1.16,3.248H49.3A5.065,5.065,0,0,0,50.462,29V4.35a4.853,4.853,0,0,0-1.218-3.306h11.6q10.963,0,11.021,10.768.057,6.022-5.046,8.626A16.45,16.45,0,0,1,69.486,24.9a15.4,15.4,0,0,0,1.74,3.474A5.083,5.083,0,0,0,74.185,30.4q-.87.7-1.74,1.274A8.632,8.632,0,0,1,68.616,33.06ZM59.336,7.366H57.828v8.352h1.624a7.5,7.5,0,0,0,4.118-.87q1.507-1.044,1.508-3.712V11.02a3.04,3.04,0,0,0-1.8-3.132A10.255,10.255,0,0,0,59.336,7.366Zm43.441,24.882H83.405A5.235,5.235,0,0,0,84.508,29V4.35a5,5,0,0,0-1.16-3.306h19.024V8.236a5.658,5.658,0,0,0-3.307-1.1H91.932V11.89h5.336a4.98,4.98,0,0,0,2.61-.87v7.714a6.128,6.128,0,0,0-2.668-.754H91.932v8.178h8.294A7.9,7.9,0,0,0,104,24.94Zm29.29,0q-.929.174-4.292.406a14.789,14.789,0,0,1-10.962-3.944,15.555,15.555,0,0,1-3.625-5.452,16.949,16.949,0,0,1-1.363-6.5A15.367,15.367,0,0,1,116.871,4.93,16.1,16.1,0,0,1,128.065.7a8.036,8.036,0,0,1,2.2.2,9.117,9.117,0,0,0,1.508.261A3.043,3.043,0,0,0,133.865,0V9.57a9.59,9.59,0,0,0-6.5-2.552,6.5,6.5,0,0,0-2.842.638q-5.045,2.494-5.046,9.106a10.623,10.623,0,0,0,1.972,6.5,7.263,7.263,0,0,0,6.032,2.9,9.579,9.579,0,0,0,6.612-2.494v9.628A3.125,3.125,0,0,0,132.067,32.248Zm26.391,0A5.24,5.24,0,0,0,159.56,29V16.936h-7.83V29a5.06,5.06,0,0,0,1.16,3.248H143.2A5.065,5.065,0,0,0,144.363,29V4.35a4.853,4.853,0,0,0-1.218-3.306h9.744a5.3,5.3,0,0,0-1.16,3.306V10.9h7.83V4.35a5,5,0,0,0-1.16-3.306h9.744a5,5,0,0,0-1.16,3.306V29a5.229,5.229,0,0,0,1.1,3.248Zm39.322,0H178.408a5.235,5.235,0,0,0,1.1-3.248V4.35a5,5,0,0,0-1.16-3.306h19.024V8.236a5.658,5.658,0,0,0-3.307-1.1h-7.134V11.89h5.336a4.98,4.98,0,0,0,2.61-.87v7.714a6.128,6.128,0,0,0-2.668-.754h-5.278v8.178h8.294A7.9,7.9,0,0,0,199,24.94Zm29.522.812q-3.539.174-5.423-4.5a29.7,29.7,0,0,0-3.451-6.693h-1.914V29a5.06,5.06,0,0,0,1.16,3.248h-9.687A5.065,5.065,0,0,0,209.148,29V4.35a4.853,4.853,0,0,0-1.218-3.306h11.6q10.963,0,11.021,10.768.057,6.022-5.046,8.626a16.45,16.45,0,0,1,2.668,4.458,15.4,15.4,0,0,0,1.74,3.474,5.083,5.083,0,0,0,2.958,2.026q-.87.7-1.74,1.274A8.632,8.632,0,0,1,227.3,33.06Zm-9.28-25.694h-1.508v8.352h1.624a7.5,7.5,0,0,0,4.118-.87q1.507-1.044,1.508-3.712V11.02a3.04,3.04,0,0,0-1.8-3.132A10.255,10.255,0,0,0,218.022,7.366Zm42.8,24.882q-.929.174-4.292.406a14.789,14.789,0,0,1-10.962-3.944,15.555,15.555,0,0,1-3.625-5.452,16.949,16.949,0,0,1-1.363-6.5A15.367,15.367,0,0,1,245.63,4.93,16.1,16.1,0,0,1,256.824.7a8.036,8.036,0,0,1,2.2.2,9.117,9.117,0,0,0,1.508.261A3.043,3.043,0,0,0,262.624,0V9.57a9.59,9.59,0,0,0-6.5-2.552,6.5,6.5,0,0,0-2.842.638q-5.045,2.494-5.046,9.106a10.623,10.623,0,0,0,1.972,6.5,7.263,7.263,0,0,0,6.032,2.9,9.579,9.579,0,0,0,6.612-2.494v9.628A3.125,3.125,0,0,0,260.826,32.248Zm26.391,0a5.24,5.24,0,0,0,1.1-3.248V16.936h-7.83V29a5.06,5.06,0,0,0,1.16,3.248h-9.687A5.065,5.065,0,0,0,273.122,29V4.35A4.853,4.853,0,0,0,271.9,1.044h9.744a5.3,5.3,0,0,0-1.16,3.306V10.9h7.83V4.35a5,5,0,0,0-1.16-3.306H296.9a5,5,0,0,0-1.16,3.306V29a5.229,5.229,0,0,0,1.1,3.248Zm39.322,0H307.167A5.235,5.235,0,0,0,308.27,29V4.35a5,5,0,0,0-1.16-3.306h19.024V8.236a5.658,5.658,0,0,0-3.307-1.1h-7.134V11.89h5.336a4.98,4.98,0,0,0,2.61-.87v7.714a6.128,6.128,0,0,0-2.668-.754h-5.278v8.178h8.294a7.9,7.9,0,0,0,3.771-1.218ZM9.8,63.466A5.355,5.355,0,0,1,4.425,69H0V57.935H4.425A5.356,5.356,0,0,1,9.8,63.466Zm-2.433,0a2.848,2.848,0,0,0-2.939-3.1h-1.9v6.2h1.9A2.848,2.848,0,0,0,7.363,63.466ZM16.6,57.935V69H14.071V57.935ZM32.405,69H29.877V62.566l-2.86,4.692h-.284l-2.86-4.692V69H21.344V57.935h2.528l3,4.915,3-4.915h2.528Zm4.274-5.53a5.752,5.752,0,1,1,5.753,5.751A5.7,5.7,0,0,1,36.679,63.466Zm8.976,0a3.224,3.224,0,1,0-3.223,3.286A3.146,3.146,0,0,0,45.655,63.466Zm10.531,1.9h-1.2V69H52.457V57.935h4.425a3.783,3.783,0,0,1,3.792,3.793,3.647,3.647,0,0,1-2.038,3.208L60.99,69H58.272Zm-1.2-2.212h1.9a1.432,1.432,0,0,0,0-2.845h-1.9ZM71.98,66.563V69H65.027V57.935H71.9v2.433H67.555V62.2H71.5v2.4h-3.95v1.96Zm10.517-.08,2.181-1.263A2.317,2.317,0,0,0,87,66.753c1.2,0,1.5-.473,1.5-.9,0-.679-.632-.948-2.291-1.406-1.643-.458-3.255-1.248-3.255-3.366a3.46,3.46,0,0,1,3.713-3.366,4.29,4.29,0,0,1,4.045,2.5L88.58,61.459a1.938,1.938,0,0,0-1.912-1.28c-.79,0-1.185.395-1.185.838,0,.506.269.853,1.992,1.374,1.674.506,3.555,1.091,3.555,3.429,0,2.133-1.706,3.4-4.108,3.4A4.356,4.356,0,0,1,82.5,66.484Zm19.522.08V69H95.066V57.935h6.873v2.433H97.594V62.2h3.95v2.4h-3.95v1.96Zm12.964-8.628V69h-1.9l-4.266-6v6h-2.528V57.935h1.9l4.266,6v-6Zm11.937,8.628V69h-7.585v-1.96l4.234-6.669h-4.156V57.935h7.426v1.96l-4.234,6.669Zm10.75.695h-4.108L133.009,69h-2.765L134,57.935h3.223L140.988,69h-2.765Zm-.758-2.37-1.3-4.061-1.3,4.061Zm22.1-4.52h-2.845V69h-2.528V60.368H150.8V57.935h8.216Zm10.909,6.2V69H162.97V57.935h6.873v2.433H165.5V62.2h3.95v2.4H165.5v1.96ZM185.256,69h-2.528V62.566l-2.86,4.692h-.284l-2.86-4.692V69H174.2V57.935h2.528l3,4.915,3-4.915h2.528Zm12.807-7.268a3.8,3.8,0,0,1-3.871,3.792h-1.658V69h-2.528V57.935h4.187A3.8,3.8,0,0,1,198.063,61.728Zm-2.528,0a1.352,1.352,0,0,0-1.343-1.423h-1.658V63.15h1.658A1.351,1.351,0,0,0,195.535,61.728Zm6.091,1.738a5.752,5.752,0,1,1,5.753,5.751A5.7,5.7,0,0,1,201.626,63.466Zm8.976,0a3.224,3.224,0,1,0-3.223,3.286A3.146,3.146,0,0,0,210.6,63.466ZM234.229,65a10.227,10.227,0,0,1-1.836-.243,10.294,10.294,0,0,0-1.836-.243,2.843,2.843,0,0,0-1.756.837q.945-3.59,3.889-3.591a7.534,7.534,0,0,1,1.539.216,12.725,12.725,0,0,0,1.781.351,2.612,2.612,0,0,0,1.7-.756v.567a2.544,2.544,0,0,1-1.025,2.011A3.73,3.73,0,0,1,234.229,65Z"/></g></g></svg>