<svg xmlns="http://www.w3.org/2000/svg" viewBox="0 0 327.758 33.292"><defs><style>.cls-1{fill:#231f20;}</style></defs><title>onlytext_black</title><g id="Layer_2" data-name="Layer 2"><g id="Layer_1-2" data-name="Layer 1"><path class="cls-1" d="M11.06,25.8H.03a3.194,3.194,0,0,0,.629-1.918V9.408A2.945,2.945,0,0,0,0,7.49H5.425a5.213,5.213,0,0,0-.569,1.948v12.8H9.582a4.45,4.45,0,0,0,2.167-.719Zm14.147,0a2.378,2.378,0,0,0,.3-1.227,2.1,2.1,0,0,0-.108-.658l-.419-1.982H21.548a19.924,19.924,0,0,0-.477,2.7,2.149,2.149,0,0,0,.27,1.169H15.825a3.97,3.97,0,0,0,.45-.54,3.849,3.849,0,0,0,.629-1.409L19.961,9.378a3.647,3.647,0,0,0,.06-.659,2.386,2.386,0,0,0-.3-1.228h7.1a2.386,2.386,0,0,0-.3,1.228,3.646,3.646,0,0,0,.059.659l3.057,14.476A4.037,4.037,0,0,0,30.721,25.8ZM23.258,11.776l-.929,6.594h1.888ZM68.616,33.06q-3.539.174-5.423-4.5a29.7,29.7,0,0,0-3.451-6.693H57.828V29a5.06,5.06,0,0,0,1.16,3.248H49.3A5.065,5.065,0,0,0,50.462,29V4.35a4.853,4.853,0,0,0-1.218-3.306h11.6q10.963,0,11.021,10.768.057,6.022-5.046,8.626A16.45,16.45,0,0,1,69.486,24.9a15.4,15.4,0,0,0,1.74,3.474A5.083,5.083,0,0,0,74.185,30.4q-.87.7-1.74,1.274A8.632,8.632,0,0,1,68.616,33.06ZM59.336,7.366H57.828v8.352h1.624a7.5,7.5,0,0,0,4.118-.87q1.507-1.044,1.508-3.712V11.02a3.04,3.04,0,0,0-1.8-3.132A10.255,10.255,0,0,0,59.336,7.366Zm43.441,24.882H83.405A5.235,5.235,0,0,0,84.508,29V4.35a5,5,0,0,0-1.16-3.306h19.024V8.236a5.658,5.658,0,0,0-3.307-1.1H91.932V11.89h5.336a4.98,4.98,0,0,0,2.61-.87v7.714a6.128,6.128,0,0,0-2.668-.754H91.932v8.178h8.294A7.9,7.9,0,0,0,104,24.94Zm29.29,0q-.929.174-4.292.406a14.789,14.789,0,0,1-10.962-3.944,15.555,15.555,0,0,1-3.625-5.452,16.949,16.949,0,0,1-1.363-6.5A15.367,15.367,0,0,1,116.871,4.93,16.1,16.1,0,0,1,128.065.7a8.036,8.036,0,0,1,2.2.2,9.117,9.117,0,0,0,1.508.261A3.043,3.043,0,0,0,133.865,0V9.57a9.59,9.59,0,0,0-6.5-2.552,6.5,6.5,0,0,0-2.842.638q-5.045,2.494-5.046,9.106a10.623,10.623,0,0,0,1.972,6.5,7.263,7.263,0,0,0,6.032,2.9,9.579,9.579,0,0,0,6.612-2.494v9.628A3.125,3.125,0,0,0,132.067,32.248Zm26.391,0A5.24,5.24,0,0,0,159.56,29V16.936h-7.83V29a5.06,5.06,0,0,0,1.16,3.248H143.2A5.065,5.065,0,0,0,144.363,29V4.35a4.853,4.853,0,0,0-1.218-3.306h9.744a5.3,5.3,0,0,0-1.16,3.306V10.9h7.83V4.35a5,5,0,0,0-1.16-3.306h9.744a5,5,0,0,0-1.16,3.306V29a5.229,5.229,0,0,0,1.1,3.248Zm39.322,0H178.408a5.235,5.235,0,0,0,1.1-3.248V4.35a5,5,0,0,0-1.16-3.306h19.024V8.236a5.658,5.658,0,0,0-3.307-1.1h-7.134V11.89h5.336a4.98,4.98,0,0,0,2.61-.87v7.714a6.128,6.128,0,0,0-2.668-.754h-5.278v8.178h8.294A7.9,7.9,0,0,0,199,24.94Zm29.522.812q-3.539.174-5.423-4.5a29.7,29.7,0,0,0-3.451-6.693h-1.914V29a5.06,5.06,0,0,0,1.16,3.248h-9.687A5.065,5.065,0,0,0,209.148,29V4.35a4.853,4.853,0,0,0-1.218-3.306h11.6q10.963,0,11.021,10.768.057,6.022-5.046,8.626a16.45,16.45,0,0,1,2.668,4.458,15.4,15.4,0,0,0,1.74,3.474,5.083,5.083,0,0,0,2.958,2.026q-.87.7-1.74,1.274A8.632,8.632,0,0,1,227.3,33.06Zm-9.28-25.694h-1.508v8.352h1.624a7.5,7.5,0,0,0,4.118-.87q1.507-1.044,1.508-3.712V11.02a3.04,3.04,0,0,0-1.8-3.132A10.255,10.255,0,0,0,218.022,7.366Zm42.8,24.882q-.929.174-4.292.406a14.789,14.789,0,0,1-10.962-3.944,15.555,15.555,0,0,1-3.625-5.452,16.949,16.949,0,0,1-1.363-6.5A15.367,15.367,0,0,1,245.63,4.93,16.1,16.1,0,0,1,256.824.7a8.036,8.036,0,0,1,2.2.2,9.117,9.117,0,0,0,1.508.261A3.043,3.043,0,0,0,262.624,0V9.57a9.59,9.59,0,0,0-6.5-2.552,6.5,6.5,0,0,0-2.842.638q-5.045,2.494-5.046,9.106a10.623,10.623,0,0,0,1.972,6.5,7.263,7.263,0,0,0,6.032,2.9,9.579,9.579,0,0,0,6.612-2.494v9.628A3.125,3.125,0,0,0,260.826,32.248Zm26.391,0a5.24,5.24,0,0,0,1.1-3.248V16.936h-7.83V29a5.06,5.06,0,0,0,1.16,3.248h-9.687A5.065,5.065,0,0,0,273.122,29V4.35A4.853,4.853,0,0,0,271.9,1.044h9.744a5.3,5.3,0,0,0-1.16,3.306V10.9h7.83V4.35a5,5,0,0,0-1.16-3.306H296.9a5,5,0,0,0-1.16,3.306V29a5.229,5.229,0,0,0,1.1,3.248Zm39.322,0H307.167A5.235,5.235,0,0,0,308.27,29V4.35a5,5,0,0,0-1.16-3.306h19.024V8.236a5.658,5.658,0,0,0-3.307-1.1h-7.134V11.89h5.336a4.98,4.98,0,0,0,2.61-.87v7.714a6.128,6.128,0,0,0-2.668-.754h-5.278v8.178h8.294a7.9,7.9,0,0,0,3.771-1.218Z"/></g></g></svg>