<svg xmlns="http://www.w3.org/2000/svg" viewBox="0 0 278.51 149.03"><defs><style>.cls-1{fill:#fff;}</style></defs><title>logo_full_white</title><g id="Layer_2" data-name="Layer 2"><g id="Layer_1-2" data-name="Layer 1"><path class="cls-1" d="M19.37,77.86q-3.54.17-5.42-4.5a29.7,29.7,0,0,0-3.45-6.69H8.58V73.8A5.06,5.06,0,0,0,9.74,77H.06A5.07,5.07,0,0,0,1.22,73.8V49.15A4.85,4.85,0,0,0,0,45.84H11.6q11,0,11,10.77.06,6-5,8.63a16.45,16.45,0,0,1,2.67,4.46A15.4,15.4,0,0,0,22,73.17a5.08,5.08,0,0,0,3,2q-.87.7-1.74,1.27A8.63,8.63,0,0,1,19.37,77.86ZM10.09,52.17H8.58v8.35h1.62a7.5,7.5,0,0,0,4.12-.87q1.51-1,1.51-3.71v-.12A3,3,0,0,0,14,52.69,10.26,10.26,0,0,0,10.09,52.17ZM53.53,77H34.16a5.23,5.23,0,0,0,1.1-3.25V49.15a5,5,0,0,0-1.16-3.31h19V53a5.66,5.66,0,0,0-3.31-1.1H42.69v4.76H48a5,5,0,0,0,2.61-.87v7.71A6.13,6.13,0,0,0,48,62.78H42.69V71H51a7.9,7.9,0,0,0,3.77-1.22Zm29.29,0q-.93.17-4.29.41a14.79,14.79,0,0,1-11-3.94,15.56,15.56,0,0,1-3.62-5.45,17,17,0,0,1-1.36-6.5,15.37,15.37,0,0,1,5-11.83A16.1,16.1,0,0,1,78.82,45.5a8,8,0,0,1,2.2.2,9.12,9.12,0,0,0,1.51.26,3,3,0,0,0,2.09-1.16v9.57a9.59,9.59,0,0,0-6.5-2.55,6.5,6.5,0,0,0-2.84.64q-5,2.49-5,9.11a10.62,10.62,0,0,0,2,6.5,7.26,7.26,0,0,0,6,2.9,9.58,9.58,0,0,0,6.61-2.49v9.63A3.12,3.12,0,0,0,82.82,77Zm26.39,0a5.24,5.24,0,0,0,1.1-3.25V61.74h-7.83V73.8A5.06,5.06,0,0,0,103.65,77H94a5.07,5.07,0,0,0,1.16-3.25V49.15a4.85,4.85,0,0,0-1.22-3.31h9.74a5.3,5.3,0,0,0-1.16,3.31V55.7h7.83V49.15a5,5,0,0,0-1.16-3.31h9.74a5,5,0,0,0-1.16,3.31V73.8a5.23,5.23,0,0,0,1.1,3.25Zm39.32,0H129.16a5.23,5.23,0,0,0,1.1-3.25V49.15a5,5,0,0,0-1.16-3.31h19V53a5.66,5.66,0,0,0-3.31-1.1h-7.13v4.76H143a5,5,0,0,0,2.61-.87v7.71a6.13,6.13,0,0,0-2.67-.75h-5.28V71H146a7.9,7.9,0,0,0,3.77-1.22Zm29.52.81q-3.54.17-5.42-4.5a29.7,29.7,0,0,0-3.45-6.69h-1.91V73.8A5.06,5.06,0,0,0,168.43,77h-9.69a5.07,5.07,0,0,0,1.16-3.25V49.15a4.85,4.85,0,0,0-1.22-3.31h11.6q11,0,11,10.77.06,6-5,8.63a16.45,16.45,0,0,1,2.67,4.46,15.4,15.4,0,0,0,1.74,3.47,5.08,5.08,0,0,0,3,2q-.87.7-1.74,1.27A8.63,8.63,0,0,1,178.06,77.86Zm-9.28-25.69h-1.51v8.35h1.62a7.5,7.5,0,0,0,4.12-.87q1.51-1,1.51-3.71v-.12a3,3,0,0,0-1.8-3.13A10.26,10.26,0,0,0,168.78,52.17ZM211.58,77q-.93.17-4.29.41a14.79,14.79,0,0,1-11-3.94,15.56,15.56,0,0,1-3.62-5.45,17,17,0,0,1-1.36-6.5,15.37,15.37,0,0,1,5-11.83,16.1,16.1,0,0,1,11.19-4.23,8,8,0,0,1,2.2.2,9.12,9.12,0,0,0,1.51.26,3,3,0,0,0,2.09-1.16v9.57a9.59,9.59,0,0,0-6.5-2.55,6.5,6.5,0,0,0-2.84.64q-5,2.49-5,9.11a10.62,10.62,0,0,0,2,6.5,7.26,7.26,0,0,0,6,2.9,9.58,9.58,0,0,0,6.61-2.49v9.63A3.12,3.12,0,0,0,211.58,77ZM238,77a5.24,5.24,0,0,0,1.1-3.25V61.74h-7.83V73.8A5.06,5.06,0,0,0,232.4,77h-9.69a5.07,5.07,0,0,0,1.16-3.25V49.15a4.85,4.85,0,0,0-1.22-3.31h9.74a5.3,5.3,0,0,0-1.16,3.31V55.7h7.83V49.15a5,5,0,0,0-1.16-3.31h9.74a5,5,0,0,0-1.16,3.31V73.8A5.23,5.23,0,0,0,247.6,77Zm39.32,0H257.92A5.23,5.23,0,0,0,259,73.8V49.15a5,5,0,0,0-1.16-3.31h19V53a5.66,5.66,0,0,0-3.31-1.1h-7.13v4.76h5.34a5,5,0,0,0,2.61-.87v7.71a6.13,6.13,0,0,0-2.67-.75h-5.28V71h8.29a7.9,7.9,0,0,0,3.77-1.22ZM66.05,109.9a4.06,4.06,0,0,1-4.08,4.2H58.62v-8.4H62A4.07,4.07,0,0,1,66.05,109.9Zm-1.85,0A2.16,2.16,0,0,0,62,107.54H60.54v4.7H62A2.16,2.16,0,0,0,64.21,109.9Zm7-4.2v8.4H69.3v-8.4Zm12,8.4H81.3v-4.88l-2.17,3.56h-.22l-2.17-3.56v4.88H74.82v-8.4h1.92L79,109.43l2.28-3.73h1.92Zm3.24-4.2a4.37,4.37,0,1,1,4.37,4.37A4.33,4.33,0,0,1,86.46,109.9Zm6.81,0a2.45,2.45,0,1,0-2.45,2.49A2.39,2.39,0,0,0,93.27,109.9Zm8,1.44h-.91v2.76H98.43v-8.4h3.36a2.87,2.87,0,0,1,2.88,2.88,2.77,2.77,0,0,1-1.55,2.43l1.79,3.08h-2.06Zm-.91-1.68h1.44a1.09,1.09,0,0,0,0-2.16h-1.44Zm12.9,2.59v1.85H108v-8.4h5.22v1.85h-3.3v1.39h3v1.82h-3v1.49Zm8-.06,1.66-1a1.76,1.76,0,0,0,1.76,1.16c.91,0,1.14-.36,1.14-.68,0-.52-.48-.72-1.74-1.07s-2.47-.95-2.47-2.55a2.63,2.63,0,0,1,2.82-2.55,3.26,3.26,0,0,1,3.07,1.9l-1.62.95a1.47,1.47,0,0,0-1.45-1c-.6,0-.9.3-.9.64s.2.65,1.51,1,2.7.83,2.7,2.6c0,1.62-1.29,2.58-3.12,2.58A3.31,3.31,0,0,1,121.23,112.19Zm14.82.06v1.85h-5.28v-8.4H136v1.85h-3.3v1.39h3v1.82h-3v1.49Zm9.84-6.55v8.4h-1.44l-3.24-4.56v4.56h-1.92v-8.4h1.44l3.24,4.56V105.7Zm9.06,6.55v1.85H149.2V112.6l3.21-5.06h-3.15V105.7h5.64v1.49l-3.21,5.06Zm8.16.53H160l-.42,1.32h-2.1l2.85-8.4h2.45l2.85,8.4h-2.1Zm-.58-1.8-1-3.08-1,3.08Zm16.78-3.43h-2.16v6.55h-1.92v-6.55h-2.16V105.7h6.24Zm8.28,4.7v1.85h-5.28v-8.4h5.22v1.85h-3.3v1.39h3v1.82h-3v1.49Zm11.64,1.85h-1.92v-4.88l-2.17,3.56h-.22l-2.17-3.56v4.88h-1.92v-8.4h1.92l2.28,3.73,2.28-3.73h1.92Zm9.72-5.52a2.88,2.88,0,0,1-2.94,2.88h-1.26v2.64h-1.92v-8.4H206A2.89,2.89,0,0,1,209,108.58Zm-1.92,0a1,1,0,0,0-1-1.08h-1.26v2.16H206A1,1,0,0,0,207,108.58Zm4.62,1.32a4.37,4.37,0,1,1,4.37,4.37A4.33,4.33,0,0,1,211.65,109.9Zm6.81,0a2.45,2.45,0,1,0-2.45,2.49A2.39,2.39,0,0,0,218.47,109.9ZM113.37,142.48v1.62h3.12v1.85h-3.12V149h-1.92v-8.4h5.1v1.85Zm8.4-1.85V149h-1.92v-8.4Zm6.43,5.64h-.91V149h-1.92v-8.4h3.36a2.87,2.87,0,0,1,2.88,2.88,2.77,2.77,0,0,1-1.55,2.43l1.79,3.08h-2.06Zm-.91-1.68h1.44a1.09,1.09,0,0,0,0-2.16h-1.44Zm12.9,2.59V149h-5.28v-8.4h5.22v1.85h-3.3v1.39h3v1.82h-3v1.49Zm9.84-6.55V149h-1.44l-3.24-4.56V149h-1.92v-8.4h1.44l3.24,4.56v-4.56Zm9.06,6.55V149h-5.76v-1.49l3.21-5.06h-3.15v-1.85H159v1.49l-3.21,5.06Zm8.46,0V149h-5.28v-8.4h5.22v1.85h-3.3v1.39h3v1.82h-3v1.49ZM132.47,19.55H120.69a3.41,3.41,0,0,0,.67-2V2a3.14,3.14,0,0,0-.7-2h5.79a5.57,5.57,0,0,0-.61,2.08V15.74h5A4.75,4.75,0,0,0,133.2,15Zm15.1,0a2.54,2.54,0,0,0,.32-1.31,2.24,2.24,0,0,0-.12-.7l-.45-2.12h-3.66a21.27,21.27,0,0,0-.51,2.88,2.29,2.29,0,0,0,.29,1.25h-5.89A4.24,4.24,0,0,0,138,19a4.11,4.11,0,0,0,.67-1.5L142,2a3.89,3.89,0,0,0,.06-.7A2.55,2.55,0,0,0,141.71,0h7.58A2.55,2.55,0,0,0,149,1.31,3.89,3.89,0,0,0,149,2l3.26,15.46a4.31,4.31,0,0,0,1.15,2.08Zm-2.08-15-1,7h2Z"/></g></g></svg>