<?xml version="1.0" standalone="no"?>
<!DOCTYPE svg PUBLIC "-//W3C//DTD SVG 20010904//EN"
 "http://www.w3.org/TR/2001/REC-SVG-20010904/DTD/svg10.dtd">
<svg version="1.0" xmlns="http://www.w3.org/2000/svg"
 width="260.000000pt" height="260.000000pt" viewBox="0 0 260.000000 260.000000"
 preserveAspectRatio="xMidYMid meet">
<metadata>
Created by potrace 1.11, written by Peter Selinger 2001-2013
</metadata>
<g transform="translate(0.000000,260.000000) scale(0.100000,-0.100000)"
fill="#000000" stroke="none">
<path d="M769 2041 l27 -58 0 -679 -1 -679 -27 -51 -27 -51 245 0 c134 0 244
3 244 6 0 3 -7 15 -16 26 -28 37 -36 99 -36 279 0 100 1 188 1 197 1 14 11 17
48 15 46 -1 49 -3 81 -51 32 -48 95 -172 160 -316 98 -217 271 -254 494 -105
26 17 48 34 48 37 0 3 -18 14 -40 24 -69 31 -108 81 -182 235 -39 80 -85 166
-104 191 -19 26 -34 51 -34 56 0 4 16 17 35 28 78 41 156 138 190 235 22 61
29 191 16 282 -26 184 -101 302 -236 368 -120 60 -146 63 -547 66 l-366 3 27
-58z m674 -286 c72 -26 102 -70 104 -156 3 -129 -39 -194 -142 -224 -56 -17
-209 -25 -222 -12 -4 5 -8 339 -4 406 1 19 198 8 264 -14z"/>
</g>
</svg>
